<svg version="1.2" xmlns="http://www.w3.org/2000/svg" viewBox="0 0 231 231" width="231" height="231">
	<title>CMG icon</title>
	<style>
		.s0 { fill: #ffffff } 
		.s1 { fill: #000000 } 
		.s2 { fill: #231f20 } 
		.s3 { fill: #ffaf46 } 
	</style>
	<path id="Layer copy" class="s0" d="m228.6 83.3l-32.2-41.2c-7.8-10.1-19.6-15.8-32.3-15.8h-21.2c-2.9 0-5.5 1.8-6.6 4.6-3.2 8.9-11.8 14.9-21.3 14.9-9.5 0-18-6-21.3-14.9-1-2.8-3.6-4.6-6.6-4.6h-21.2c-12.7 0-24.5 5.7-32.3 15.8l-32.1 41.2c-1.4 1.8-1.9 4.2-1.2 6.3 0.7 2.2 2.3 3.9 4.5 4.7l44.5 14.8v87.7c0 3.9 3.2 7 7 7h117.4c3.9 0 7-3.1 7-7v-87.7l44.6-14.8c2.1-0.8 3.8-2.5 4.5-4.7 0.6-2.1 0.2-4.5-1.2-6.3z"/>
	<path class="s1" d="m228.6 83.3l-32.2-41.2c-7.8-10.1-19.6-15.8-32.3-15.8h-21.2c-2.9 0-5.5 1.8-6.6 4.6-3.2 8.9-11.8 14.9-21.3 14.9-9.5 0-18-6-21.3-14.9-1-2.8-3.6-4.6-6.6-4.6h-21.2c-12.7 0-24.5 5.7-32.3 15.8l-32.1 41.2c-1.4 1.8-1.9 4.2-1.2 6.3 0.7 2.2 2.3 3.9 4.5 4.7l44.5 14.8v87.7c0 3.9 3.2 7 7 7h117.4c3.9 0 7-3.1 7-7v-87.7l44.6-14.8c2.1-0.8 3.8-2.5 4.5-4.7 0.6-2.1 0.2-4.5-1.2-6.3zm-47.9 11v-10.2c0-3.9-3.1-7-7-7-3.9 0-7 3.1-7 7v105.7h-103.4v-105.7c0-3.9-3.1-7-7-7-3.8 0-7 3.1-7 7v10.2l-30.7-10.2 26.1-33.4c5.1-6.6 12.9-10.4 21.2-10.4h16.7c6.3 11.8 18.8 19.5 32.4 19.5 13.7 0 26.1-7.7 32.4-19.5h16.7c8.4 0 16.1 3.8 21.3 10.4l26 33.4z"/>
	<path id="pz9EEoeuU" fill-rule="evenodd" class="s2" d="m127.8 154.7c-3.4-0.1-4.1-0.4-5.1-2-0.4-0.5-0.6-1.4-0.6-2.2 0-1.7-0.2-1.9-1.5-2.6-1.4-0.7-1.7-0.7-3.3 0.7-1.2 1.1-1.6 1.3-2.8 1.3-1.4 0-1.5-0.1-4.4-2.9-2.9-2.9-2.9-2.9-2.9-4.5 0-1.3 0.1-1.7 1.1-2.9 1.2-1.5 1.4-2.3 0.7-3.6-0.4-0.8-0.7-0.9-2.3-1-2.1-0.3-2.9-0.7-3.8-2-0.8-1.2-0.8-7.7 0-9.1 0.7-1.1 1.9-1.8 3.4-1.8 1.7 0 2.2-0.2 2.7-1.3 0.7-1.3 0.5-2.2-0.5-3.2-1.1-1.1-1.6-2.6-1.3-3.9 0.3-1.3 4.7-5.9 6.2-6.4 1.4-0.5 3 0 4.2 1.2 1 1 1.9 1.2 3.2 0.5 1.1-0.5 1.3-1 1.3-2.7 0-1.5 0.7-2.7 1.8-3.4 1.4-0.8 7.9-0.8 9.1 0 1.3 0.9 1.7 1.7 2 3.8 0.1 1.6 0.2 1.9 1 2.3 1.3 0.7 2.1 0.5 3.4-0.6 0.7-0.5 1.6-1.1 2.1-1.2 1.8-0.4 2.6 0.1 5.6 3.1l2.8 2.9-0.1 1.5c-0.1 1.2-0.4 1.8-1.3 2.8-1.3 1.4-1.3 1.7-0.6 3.1 0.7 1.3 0.9 1.5 2.6 1.5 2.6 0 3.9 1.5 4.2 4.7 0.4 5.6-0.7 7.7-4.3 8.1-1.6 0.2-1.9 0.3-2.4 1.2-0.8 1.3-0.8 1.8 0.3 3 1.6 1.9 2 3.5 1.2 5-0.5 1-4.3 4.8-5.3 5.3-1.6 0.9-3.1 0.5-5.1-1.1-1.2-1.1-1.7-1.1-3-0.3-0.9 0.5-1 0.8-1.2 2.4-0.2 1.6-0.3 2.1-1.2 3-0.6 0.6-1.5 1.1-2 1.2-0.4 0.1-2.2 0.1-3.9 0.1zm0.8-3.6c2.7 0 2.6 0.1 2.9-2.3 0.2-2.3 0.9-3.2 2.8-4.1 1.5-0.6 2.1-0.8 3.9-0.6 1.8 0 2.2 0.2 3.1 1.1l1 0.9 1.9-1.9 1.9-1.9-0.9-1c-0.9-0.9-1.1-1.2-1.1-3.2-0.2-1.8-0.1-2.4 0.7-3.8 0.9-2 1.8-2.6 4.4-2.9l1.7-0.2 0.1-2.4c0.1-1.4 0-2.6-0.2-2.8-0.2-0.3-1.1-0.5-2.1-0.6-2-0.2-3-0.8-3.9-2.5-0.7-1.3-1-4.2-0.7-5.6 0.1-0.4 0.6-1.2 1.1-1.8l0.9-1-1.8-1.8-1.8-1.8-1.3 1c-1.2 0.9-1.5 0.9-3.5 0.9-3.9 0-5.8-1.4-6.2-4.5-0.1-1-0.4-2-0.5-2.1-0.5-0.6-4.7-0.6-5.1 0-0.2 0.1-0.4 1.1-0.5 2-0.3 3.1-2.4 4.6-6.3 4.6-2.1 0-2.3 0-3.4-1l-1.2-1.1-3.8 3.8 1 1.1c0.9 0.9 1 1.1 1.1 3.4 0.1 2 0 2.5-0.6 3.7-1 1.8-2 2.5-4 2.7-0.9 0.1-1.9 0.3-2.1 0.5-0.5 0.4-0.5 4.6 0 5.1 0.2 0.1 1.2 0.4 2.2 0.5 3.1 0.4 4.5 2.3 4.5 6.2 0 2 0 2.3-0.9 3.5l-1 1.3 3.6 3.6 0.8-0.7c1.7-1.6 4.7-1.9 7.3-0.7 1.9 1 2.6 1.9 2.8 4 0.1 0.9 0.3 1.8 0.5 2 0.2 0.3 1.1 0.4 2.7 0.4zm-0.7-10c-3 0-3.4-0.1-5.5-1.2-3.8-1.9-5.3-3.9-6.3-8.2-1.1-4.4 0-9 2.8-12 2.9-3.2 7.2-4.6 11.9-3.8 6.1 0.9 10.1 5.3 10.4 11.4 0.2 4.5-0.9 7.8-3.3 10.3-1.5 1.5-2.8 2.3-4.9 3-1.4 0.5-2.5 0.6-5.1 0.5zm9.8-13.6c-0.5-4.8-4.3-8.2-9.2-8.2-7.2-0.1-11.5 7.2-8.2 13.6 0.8 1.7 3.3 3.8 5.2 4.4 6.5 2.1 12.9-3 12.2-9.8zm-47.2 12.5c-1.1-0.4-6.8-6-7.5-7.2-1-2-0.4-3.8 2.4-6.5 0.8-0.9 1.5-1.7 1.5-1.9 0-0.8-1.6-4.3-2.2-4.8-0.5-0.5-1.2-0.6-3.2-0.6-2.9 0-4-0.4-4.9-1.7-0.5-0.8-0.6-1.5-0.6-5.8 0-4.4 0.1-5.1 0.6-6 0.9-1.4 2.1-1.9 5.2-1.9 1.4 0 2.7-0.1 2.9-0.2 0.4-0.3 2.2-4.3 2.2-5 0-0.2-0.9-1.4-2-2.5-3.5-3.7-3.3-4.7 1.7-9.7l3.6-3.6h1.6c1.6 0 1.7 0.1 3.9 2.2 1.3 1.2 2.5 2.1 2.7 2.1 0.7 0 4.7-1.8 5-2.2 0.1-0.2 0.2-1.5 0.2-2.9 0-3.1 0.5-4.3 1.9-5.2 0.9-0.5 1.6-0.6 6-0.6 4.3 0 5 0.1 5.8 0.6 1.3 0.9 1.7 2 1.7 4.9 0 2 0.1 2.7 0.5 3.2 0.6 0.6 4.1 2.2 4.9 2.2 0.2 0 1-0.7 1.9-1.5 2.7-2.8 4.4-3.4 6.5-2.4 0.5 0.3 2.3 1.9 4 3.7 4.6 4.7 4.6 5.6 0.1 9.9-2.4 2.4-2.8 2.7-3.4 2.4-1-0.6-0.7-1.4 1.9-3.9 1.7-1.7 2.4-2.7 2.4-3.2 0-1-6-7.1-6.9-7.1-0.4 0-1.4 0.7-2.3 1.7-3 3-4.2 3.2-8.4 1.3-3-1.4-3.3-2-3.3-5.7 0-3.8 0-3.8-5.6-3.8-3.1 0-4.6 0.1-4.9 0.4-0.2 0.2-0.3 1.3-0.3 2.7 0 2.8-0.4 4.3-1.4 5.2-0.9 0.9-5 2.5-6.3 2.5-1.3 0-2.1-0.5-4.4-2.7-1.4-1.4-1.9-1.6-2.5-1.5-1 0.2-6.7 6.1-6.7 6.9 0 0.3 0.6 1.1 1.3 1.8 3.3 3.2 3.6 4.4 2.1 8.2-1.6 3.7-2.5 4.3-6.8 4.3-1.4 0-2.5 0.1-2.7 0.3-0.3 0.3-0.4 1.8-0.4 4.9 0 5.6 0 5.6 3.8 5.6 3.7 0 4.3 0.3 5.7 3.3 1.9 4.2 1.7 5.4-1.3 8.4-0.9 0.9-1.7 1.9-1.7 2.3 0 0.9 6.1 6.9 7.1 6.9 0.6 0 1.4-0.7 3.2-2.4 1.4-1.4 2.7-2.5 3-2.5 0.3 0 0.7 0.3 0.9 0.6 0.3 0.6 0.1 1-2.2 3.3-1.4 1.5-3 2.8-3.5 3.1-1.2 0.5-1.8 0.5-2.8 0.1zm7.9-17.8c-2.3-2.7-4.1-7.3-4.1-10.7 0-2.2 0.9-5.5 2.1-7.8 2.6-5.4 9-9.4 15.1-9.4 3.4 0 8 1.8 10.7 4.1 1.6 1.3 1.8 2.2 0.8 2.7-0.5 0.3-0.8 0.2-1.7-0.5-3.5-2.7-6.2-3.8-10-3.8-8.2 0-14.5 6.3-14.5 14.5 0 3.7 1 6.6 3.4 9.4 1.3 1.6 1.5 2 0.9 2.6-0.7 0.6-1.4 0.3-2.7-1.1z"/>
	<path id="pYgi8dSJ3" class="s3" d="m132.1 151.6c0.1-0.2 0.2-1 0.3-1.8 0.3-2.4 0.9-3.3 2.9-4.2 2.2-1 3.6-0.8 5.3 0.7 0.7 0.6 1.5 1.1 1.8 1.1 0.7 0 5-4.3 5-5 0-0.3-0.5-1.1-1.1-1.8-1.6-1.7-1.7-3.1-0.6-5.4 0.9-2 1.8-2.6 4.4-2.9l1.8-0.2v-3.3c0.1-2.2 0-3.5-0.2-3.8-0.2-0.2-0.9-0.4-1.6-0.4q-3.8 0-4.9-4.1c-0.5-1.8-0.2-2.7 1.1-4.2 0.6-0.7 1.1-1.5 1.1-1.8 0-0.7-4.3-5-5-5-0.3 0-0.6 0.1-0.7 0.3-0.1 0.2-0.8 0.7-1.5 1.2-1.5 1.1-3.1 1.2-5 0.3-1.8-0.8-2.5-1.8-2.8-3.9-0.1-1-0.3-2-0.5-2.2-0.4-0.5-6.5-0.5-7 0-0.1 0.2-0.3 1.1-0.4 2-0.1 1-0.4 2-0.8 2.5-0.8 1.2-3 2.2-4.6 2.2-1 0-1.5-0.2-2.7-1.2-0.8-0.7-1.6-1.2-1.9-1.2-0.7 0-5 4.3-5 5 0 0.3 0.4 1.1 1.1 1.7q2.2 2.5 0.6 5.6c-0.9 1.8-2 2.5-4 2.7-0.9 0.1-1.8 0.3-2 0.4-0.2 0.3-0.4 1.4-0.4 3.5 0 2.2 0.2 3.3 0.4 3.5 0.2 0.2 1.2 0.4 2.2 0.5 2.1 0.3 3.1 1 3.9 2.8 0.9 1.9 0.8 3.5-0.3 5-0.5 0.7-1 1.4-1.2 1.5-0.2 0.1-0.3 0.4-0.3 0.7 0 0.7 4.3 5 5 5 0.3 0 1.1-0.5 1.8-1.1 1.9-1.7 3.8-1.7 6.4-0.2 1.1 0.8 1.9 2.3 1.9 4 0 0.6 0.1 1.3 0.3 1.5 0.6 0.6 7 0.6 7.2 0zm-8.8-12.6c-3.8-1.9-5.3-3.9-6.3-8.2-1.5-6.4 3-12.9 9.8-14 7.8-1.2 14.8 6.1 13.2 14-1.2 5.9-6.1 9.6-12.1 9.4-2-0.1-2.7-0.3-4.6-1.2z"/>
</svg>